<svg width="20" id="password" height="21" viewBox="0 0 16 21" fill="currentColor" xmlns="http://www.w3.org/2000/svg">
<path d="M13.2545 8.77351C13.0737 8.59266 12.8928 8.38922 12.712 8.23098V5.20188C12.712 2.60228 10.6097 0.5 8.0101 0.5C5.4105 0.5 3.30822 2.60228 3.30822 5.20188V8.14056C3.30822 8.16316 3.30822 8.18577 3.30822 8.20837C0.414752 10.808 0.166095 15.2612 2.74309 18.1547C5.32008 21.0481 9.79591 21.2968 12.6894 18.7198C15.5828 16.1428 15.8315 11.667 13.2545 8.77351ZM8.62044 14.9899C8.62044 15.329 8.34918 15.6003 8.0101 15.6003C7.67102 15.6003 7.39976 15.329 7.39976 14.9899V13.498C7.39976 13.1589 7.67102 12.8877 8.0101 12.8877C8.34918 12.8877 8.62044 13.1589 8.62044 13.498V14.9899ZM11.4687 7.34938C9.3212 6.1287 6.699 6.1287 4.5515 7.34938V5.22449C4.5515 3.32565 6.08866 1.76589 8.0101 1.76589C9.93154 1.76589 11.4687 3.30305 11.4687 5.22449V7.34938Z" fill="currentColor"/>
</svg>
