<svg width="44" height="44" viewBox="0 0 44 44" fill="none" xmlns="http://www.w3.org/2000/svg">
<path d="M31 27C31 27.5523 30.5523 28 30 28H14C13.4477 28 13 27.5523 13 27C13 26.4477 13.4477 26 14 26H30C30.5523 26 31 26.4477 31 27ZM31 22C31 22.5523 30.5523 23 30 23H14C13.4477 23 13 22.5523 13 22C13 21.4477 13.4477 21 14 21H30C30.5523 21 31 21.4477 31 22ZM31 17C31 17.5523 30.5523 18 30 18H14C13.4477 18 13 17.5523 13 17C13 16.4477 13.4477 16 14 16H30C30.5523 16 31 16.4477 31 17Z" fill="#4B5FA5"/>
<rect x="1" y="1" width="42" height="42" rx="11" stroke="#F5F5F5" stroke-width="2"/>
</svg>
