<svg width="18" height="18" viewBox="0 0 18 18" fill="none" xmlns="http://www.w3.org/2000/svg">
<path d="M12.375 0H5.625C2.51888 0 0 2.51888 0 5.625V12.375C0 15.4811 2.51888 18 5.625 18H12.375C15.4811 18 18 15.4811 18 12.375V5.625C18 2.51888 15.4811 0 12.375 0ZM16.3125 12.375C16.3125 14.5462 14.5462 16.3125 12.375 16.3125H5.625C3.45375 16.3125 1.6875 14.5462 1.6875 12.375V5.625C1.6875 3.45375 3.45375 1.6875 5.625 1.6875H12.375C14.5462 1.6875 16.3125 3.45375 16.3125 5.625V12.375Z" fill="#4F70E2"/>
<path d="M9 4.49994C6.51487 4.49994 4.5 6.51481 4.5 8.99994C4.5 11.4851 6.51487 13.4999 9 13.4999C11.4851 13.4999 13.5 11.4851 13.5 8.99994C13.5 6.51481 11.4851 4.49994 9 4.49994ZM9 11.8124C7.44975 11.8124 6.1875 10.5502 6.1875 8.99994C6.1875 7.44856 7.44975 6.18744 9 6.18744C10.5503 6.18744 11.8125 7.44856 11.8125 8.99994C11.8125 10.5502 10.5503 11.8124 9 11.8124Z" fill="#4F70E2"/>
<path d="M13.8374 4.76205C14.1686 4.76205 14.437 4.49359 14.437 4.16243C14.437 3.83127 14.1686 3.56281 13.8374 3.56281C13.5063 3.56281 13.2378 3.83127 13.2378 4.16243C13.2378 4.49359 13.5063 4.76205 13.8374 4.76205Z" fill="#4F70E2"/>
</svg>
