<svg width="18" height="18" viewBox="0 0 18 18" fill="none" xmlns="http://www.w3.org/2000/svg">
<g clip-path="url(#clip0_5808_1820)">
<path d="M8.45648 13.4553H9.39761C9.39761 13.4553 9.68212 13.4238 9.82683 13.2673C9.96072 13.1235 9.95579 12.8538 9.95579 12.8538C9.95579 12.8538 9.93709 11.5908 10.5238 11.4047C11.1017 11.2216 11.844 12.6254 12.6305 13.1659C13.2251 13.5744 13.677 13.4848 13.677 13.4848L15.7808 13.4553C15.7808 13.4553 16.8814 13.3874 16.3596 12.5221C16.3173 12.4512 16.0554 11.8822 14.7953 10.7126C13.4762 9.48798 13.6534 9.68684 15.2423 7.56929C16.21 6.27967 16.5969 5.49211 16.4758 5.15543C16.3606 4.8345 15.6489 4.91916 15.6489 4.91916L13.2822 4.93294C13.2822 4.93294 13.107 4.90931 12.9761 4.98709C12.8491 5.06387 12.7674 5.24107 12.7674 5.24107C12.7674 5.24107 12.3923 6.2393 11.8922 7.0879C10.8379 8.87861 10.4155 8.97312 10.2433 8.86187C9.84258 8.60296 9.943 7.82033 9.943 7.2651C9.943 5.52952 10.2058 4.80595 9.4301 4.6189C9.17217 4.55688 8.98316 4.51554 8.32456 4.50864C7.47991 4.49978 6.76421 4.5116 6.3596 4.70947C6.08987 4.84139 5.88215 5.13574 6.00914 5.15247C6.16567 5.17315 6.52007 5.24796 6.7081 5.50392C6.95126 5.83371 6.9424 6.57599 6.9424 6.57599C6.9424 6.57599 7.08219 8.61872 6.61655 8.8727C6.2966 9.04695 5.85852 8.69156 4.91837 7.06624C4.43698 6.23438 4.07273 5.31392 4.07273 5.31392C4.07273 5.31392 4.00284 5.14263 3.87781 5.05108C3.72621 4.93983 3.51357 4.90439 3.51357 4.90439L1.26312 4.91817C1.26312 4.91817 0.925452 4.92802 0.801411 5.0747C0.691153 5.20563 0.792551 5.47537 0.792551 5.47537C0.792551 5.47537 2.55471 9.59726 4.5492 11.6754C6.37929 13.5803 8.45648 13.4553 8.45648 13.4553Z" fill="#4F70E2"/>
</g>
<defs>
<clipPath id="clip0_5808_1820">
<rect width="15.75" height="15.75" fill="white" transform="translate(0.75 1.125)"/>
</clipPath>
</defs>
</svg>
