<svg width="20" height="20" viewBox="0 0 20 20" fill="none" xmlns="http://www.w3.org/2000/svg">
<g clip-path="url(#clip0_971_18638)">
<path d="M0.976013 19.9995C0.78284 19.9995 0.593997 19.9422 0.433368 19.8349C0.27274 19.7276 0.147543 19.5751 0.0736146 19.3966C-0.000314095 19.2182 -0.0196536 19.0218 0.0180424 18.8323C0.0557383 18.6429 0.148776 18.4688 0.285388 18.3323L18.3323 0.285395C18.5154 0.10223 18.7639 -0.000671387 19.0229 -0.000671387C19.2819 -0.000671387 19.5303 0.10223 19.7135 0.285395C19.8967 0.46856 19.9996 0.716985 19.9996 0.97602C19.9996 1.23505 19.8967 1.48348 19.7135 1.66664L1.66664 19.7135C1.57603 19.8043 1.46837 19.8763 1.34985 19.9254C1.23133 19.9745 1.10429 19.9996 0.976013 19.9995Z" fill="#171717"/>
<path d="M19.0231 19.9995C18.8948 19.9996 18.7678 19.9745 18.6492 19.9254C18.5307 19.8763 18.4231 19.8043 18.3325 19.7135L0.285578 1.66664C0.102413 1.48348 -0.000488281 1.23505 -0.000488281 0.97602C-0.000488281 0.716985 0.102413 0.46856 0.285578 0.285395C0.468743 0.10223 0.717168 -0.000671387 0.976203 -0.000671387C1.23524 -0.000671387 1.48366 0.10223 1.66683 0.285395L19.7137 18.3323C19.8503 18.4688 19.9433 18.6429 19.981 18.8323C20.0187 19.0218 19.9994 19.2182 19.9255 19.3966C19.8515 19.5751 19.7263 19.7276 19.5657 19.8349C19.4051 19.9422 19.2162 19.9995 19.0231 19.9995Z" fill="#171717"/>
</g>
<defs>
<clipPath id="clip0_971_18638">
<rect width="20" height="20" fill="white"/>
</clipPath>
</defs>
</svg>
