<svg width="20" id="phone" height="21" viewBox="0 0 20 21" fill="currentColor" xmlns="http://www.w3.org/2000/svg">
<path d="M17.8207 15.2932C18.0154 15.4886 18.1614 15.7271 18.2467 15.9894C18.3321 16.2517 18.3546 16.5304 18.3122 16.803C18.2699 17.0755 18.1639 17.3343 18.0029 17.5583C17.842 17.7823 17.6305 17.9653 17.3857 18.0924C15.9866 18.8402 14.3565 19.0313 12.8223 18.6274C8.75067 17.6024 2.89817 11.7499 1.87317 7.6782C1.46927 6.14408 1.66038 4.51397 2.40817 3.11487C2.53525 2.87004 2.7182 2.65857 2.94221 2.4976C3.16622 2.33663 3.42498 2.23068 3.69756 2.18832C3.97014 2.14596 4.24886 2.16838 4.51115 2.25378C4.77345 2.33918 5.01195 2.48515 5.20733 2.67987L6.94483 4.41653C7.1954 4.66458 7.36494 4.98271 7.43114 5.32902C7.49734 5.67532 7.45708 6.03356 7.31567 6.35653C7.16092 6.7189 6.94119 7.0499 6.66733 7.3332C4.68067 9.31987 11.1815 15.8207 13.1673 13.8332C13.4507 13.5584 13.782 13.3378 14.1448 13.1824C14.4678 13.0407 14.8261 13.0003 15.1724 13.0665C15.5188 13.1327 15.8369 13.3024 16.0848 13.5532L17.8207 15.2932Z" fill="currentColor"/>
</svg>
