<svg width="20" height="20" viewBox="0 0 20 20" fill="none" xmlns="http://www.w3.org/2000/svg">
<path d="M17.8197 14.7933C18.0144 14.9887 18.1604 15.2272 18.2458 15.4895C18.3312 15.7518 18.3536 16.0305 18.3112 16.3031C18.2689 16.5757 18.1629 16.8345 18.002 17.0585C17.841 17.2825 17.6295 17.4654 17.3847 17.5925C15.9856 18.3403 14.3555 18.5314 12.8214 18.1275C8.74969 17.1025 2.89719 11.25 1.87219 7.17834C1.46829 5.64421 1.6594 4.01411 2.40719 2.615C2.53427 2.37017 2.71722 2.15871 2.94123 1.99774C3.16524 1.83677 3.42401 1.73081 3.69658 1.68845C3.96916 1.64609 4.24788 1.66852 4.51018 1.75392C4.77247 1.83932 5.01097 1.98529 5.20636 2.18L6.94386 3.91667C7.19442 4.16472 7.36397 4.48285 7.43016 4.82916C7.49636 5.17546 7.4561 5.5337 7.31469 5.85667C7.15994 6.21904 6.94022 6.55004 6.66636 6.83334C4.67969 8.82 11.1805 15.3208 13.1664 13.3333C13.4497 13.0585 13.781 12.8379 14.1439 12.6825C14.4668 12.5409 14.8251 12.5005 15.1714 12.5667C15.5178 12.6329 15.8359 12.8026 16.0839 13.0533L17.8197 14.7933Z" fill="#4F70E2"/>
</svg>
